<mxfile host="app.diagrams.net" modified="2023-11-06T00:55:37.655Z" agent="Mozilla/5.0 (Windows NT 10.0; Win64; x64) AppleWebKit/537.36 (KHTML, like Gecko) Chrome/119.0.0.0 Safari/537.36" version="22.0.8" etag="iSG-VacpHBd0z1ueQxhV" type="github">
  <diagram name="PÃ¡gina-1" id="fpS_X_q8etgvoxUkv1h0">
    <mxGraphModel>
      <root>
        <mxCell id="0" />
        <mxCell id="1" parent="0" />
      </root>
    </mxGraphModel>
  </diagram>
</mxfile>
